<svg width="248" height="252" viewBox="0 0 248 252" fill="none" xmlns="http://www.w3.org/2000/svg">
<path d="M168.566 54.9423C167.182 47.0569 166.092 39.1703 165.081 31.2835L164.712 28.3258L164.531 26.8471L164.487 26.4774C164.472 26.3567 164.46 26.2186 164.437 26.1383L164.318 25.5838C164.005 24.1167 163.446 22.7607 162.684 21.5738C161.914 20.3923 160.969 19.3623 159.878 18.5733C158.788 17.7852 157.601 17.2016 156.38 16.8732C155.16 16.5443 153.929 16.4331 152.728 16.5487L147.209 17.0542L141.293 17.5698C139.321 17.7398 137.349 17.905 135.376 18.0571C127.488 18.6937 119.599 19.2452 111.709 19.7335C107.765 19.9861 103.82 20.2045 99.8747 20.4223L98.3954 20.5049L97.6557 20.5429L97.4709 20.5522L97.3803 20.5569L97.3455 20.5658L97.2076 20.5979C97.1161 20.6175 97.0251 20.6339 96.9342 20.6464C96.8433 20.6588 96.7509 20.6612 96.6668 20.7016C96.4962 20.7673 96.3209 20.7952 96.1533 20.8508C95.4831 21.0704 94.8959 21.4529 94.372 21.8844C93.8502 22.3221 93.4131 22.8537 93.0948 23.4261C92.7798 24.0014 92.5691 24.6008 92.4713 25.2058C92.4095 25.506 92.414 25.8165 92.4054 26.1238C92.4158 26.2031 92.4226 26.2813 92.4256 26.3591L92.4271 26.4756L92.4259 26.5339L92.4247 26.563L92.4271 26.642L92.4832 28.1213L92.6737 34.0391C92.9311 41.9296 93.1111 49.8203 93.26 57.7113C93.3049 59.6839 93.323 61.6568 93.3527 63.6297L93.3539 63.7221L93.351 63.8802L93.3432 64.2002L93.3233 64.8406L93.2654 66.1211C93.2523 66.5476 93.1935 66.9737 93.1364 67.3998C93.0797 67.826 93.019 68.2515 92.9539 68.6768C92.8473 69.5303 92.6125 70.3635 92.4113 71.2015C92.2981 71.6173 92.2119 72.0413 92.0648 72.4469C91.9272 72.8556 91.7858 73.2633 91.6402 73.6695C89.2815 80.1686 84.4909 85.6582 78.4081 88.9157C77.6382 89.3044 76.8647 89.691 76.073 90.0319C75.2689 90.346 74.4567 90.6449 73.641 90.9273C72.8119 91.1662 71.9742 91.3834 71.1356 91.587C70.2937 91.77 69.4384 91.8865 68.5867 92.014C68.1603 92.0844 67.7339 92.1135 67.3062 92.1385L66.0231 92.2077C65.0056 92.2568 64.723 92.2357 64.1854 92.2416L61.2259 92.2464L49.3882 92.1884C45.4421 92.1412 41.4963 92.1156 37.5499 92.0503L26.5755 91.8568C25.99 91.8541 25.4242 91.9468 24.8691 92.1492C24.3149 92.3468 23.766 92.6473 23.2843 93.0544C22.7999 93.4585 22.3893 93.9593 22.0695 94.5132C21.7566 95.0722 21.5435 95.6873 21.4457 96.3735L21.4196 96.5018L21.4044 96.5663C21.4021 96.5794 21.3988 96.583 21.3967 96.6038L21.3934 96.6962L21.3676 97.4361L21.3096 98.916L21.1887 101.876L20.9409 107.796C20.7548 111.742 20.5798 115.689 20.3617 119.636C20.1638 123.582 19.921 127.529 19.6916 131.476C19.4372 135.423 19.192 139.37 18.905 143.318C18.7691 145.291 18.6265 147.265 18.4723 149.239L18.0981 154.255C18.0696 155.386 18.2524 156.543 18.6598 157.666C19.0663 158.79 19.7058 159.866 20.5308 160.826C21.3545 161.789 22.3818 162.611 23.5473 163.249L23.9865 163.495C24.1381 163.564 24.2947 163.621 24.4495 163.688L24.9179 163.89C25.0727 163.969 25.2409 163.991 25.4031 164.047L25.897 164.199C25.9799 164.224 26.0623 164.256 26.1467 164.276L26.4025 164.323L26.9184 164.427L27.179 164.483C27.2277 164.491 27.2548 164.504 27.3216 164.509L27.5068 164.529C31.4544 164.936 35.4022 165.375 39.3504 165.838C47.2465 166.779 55.1428 167.801 63.0407 169.121C55.1556 170.515 47.2688 171.61 39.3819 172.624C35.4385 173.124 31.4948 173.6 27.5511 174.043L27.3662 174.065C27.3098 174.073 27.2138 174.074 27.1392 174.078L26.6607 174.1L25.6985 174.136L25.2153 174.15C25.0543 174.149 24.8938 174.133 24.7324 174.126L23.7625 174.062C23.4397 174.031 23.1102 174.03 22.7907 173.969L21.8243 173.808C21.5019 173.75 21.1765 173.699 20.8553 173.631L19.9028 173.375C17.3576 172.68 14.9226 171.483 12.7527 169.88C10.5819 168.275 8.69396 166.239 7.20514 163.9C5.71247 161.561 4.6804 158.891 4.14104 156.114L4.03228 155.593C3.99662 155.419 3.98294 155.243 3.95828 155.068L3.83288 154.013L3.77552 153.484L3.73006 153.006L3.66676 152.266L3.41387 149.308C3.24121 147.336 3.08015 145.364 2.92622 143.391C2.6023 139.447 2.32059 135.503 2.02966 131.558C1.7634 127.614 1.48406 123.669 1.24929 119.724C0.994324 115.78 0.78274 111.835 0.560161 107.89L0.257347 101.973L0.108763 99.0141L0.0368468 97.5348L0.00415807 96.7951L0 96.7027V96.5553L0.00178203 96.2501L0.0095087 95.6394C0.0350652 92.3852 0.662685 89.0801 1.87454 85.9972C3.08045 82.9088 4.89615 80.0708 7.13798 77.6266C9.38487 75.1851 12.0829 73.1361 15.0896 71.6407C18.094 70.146 21.3991 69.2057 24.7437 68.8833L25.9993 68.7927C26.3992 68.7671 26.9136 68.7392 27.0836 68.7371L28.5629 68.6896L31.5218 68.6096L37.4399 68.4551C41.3851 68.3532 45.3309 68.2911 49.2761 68.207L61.1129 68.0391L64.0722 68.0162C64.5212 68.0114 65.2255 68.0147 65.1925 67.987C65.2573 67.979 65.3218 67.9749 65.3868 67.9749C65.4522 67.977 65.5185 67.9832 65.5773 67.9573C65.6974 67.9184 65.8254 67.9235 65.9458 67.8955C66.0608 67.8474 66.1788 67.8195 66.3018 67.8016C66.4109 67.7404 66.5235 67.6961 66.6441 67.6667C66.7538 67.6093 66.8563 67.5389 66.9764 67.503C67.4147 67.2715 67.8242 66.9517 68.1624 66.5699C68.5041 66.1892 68.7594 65.7494 68.9475 65.2944C68.9692 65.2368 68.995 65.1803 69.0251 65.125C69.0649 65.0724 69.0515 65.0038 69.0735 64.9458C69.0922 64.8231 69.1772 64.7155 69.1689 64.5839C69.176 64.5209 69.1873 64.4588 69.2031 64.397C69.2188 64.3354 69.2453 64.2745 69.234 64.2065C69.2331 64.1405 69.2364 64.0748 69.2438 64.0089L69.2577 63.9102L69.267 63.8606L69.272 63.8341L69.2723 63.7417C69.2836 61.7688 69.2836 59.7959 69.31 57.8227C69.3855 49.9308 69.4922 42.0383 69.6762 34.1461L69.8117 28.2268L69.8542 26.7469L69.8806 26.174L69.9163 25.5514L70.0042 24.3087C70.1879 22.6555 70.4815 21.0071 70.9617 19.4084C71.8924 16.2067 73.4124 13.1919 75.4154 10.5777C77.4126 7.95846 79.8735 5.72257 82.6484 3.99394C85.4216 2.2671 88.5196 1.05108 91.7156 0.460906C92.5124 0.314105 93.3189 0.224064 94.1203 0.125404C94.5212 0.0683478 94.9227 0.0573502 95.3245 0.0430861L96.5283 0.0101027L97.1292 0.00148276L97.2792 0L97.3737 0.00356406L97.5586 0.010996L98.2985 0.0421974L99.7784 0.111139C103.725 0.292412 107.672 0.474278 111.618 0.690022C119.512 1.10487 127.406 1.58302 135.3 2.14615C137.274 2.27988 139.247 2.42667 141.221 2.57823L147.142 3.03884L150.102 3.27985L151.582 3.40109L152.428 3.47924L153.458 3.59098C156.193 3.92886 158.858 4.75469 161.238 6.03667C163.619 7.3148 165.735 9.00331 167.443 10.9997C169.157 12.9898 170.472 15.2777 171.315 17.6946C172.164 20.1088 172.541 22.6496 172.449 25.1181L172.412 26.0409C172.408 26.207 172.391 26.3154 172.378 26.4414L172.337 26.8117L172.17 28.2922L171.828 31.2532C170.894 39.1481 169.878 47.0447 168.566 54.9423Z" fill="#006FFD"/>
<path d="M133.041 112.389C131.957 112.967 130.866 113.514 129.798 114.107C128.719 114.674 127.659 115.275 126.603 115.87C124.495 117.074 122.426 118.32 120.415 119.633C118.395 120.931 116.444 122.311 114.547 123.732C113.595 124.438 112.675 125.182 111.753 125.912C110.85 126.669 109.946 127.415 109.08 128.2C107.331 129.749 105.661 131.362 104.098 133.048C102.547 134.733 101.091 136.438 99.8032 138.255L99.3128 138.927C99.1512 139.152 99.0062 139.389 98.8522 139.619C98.5524 140.084 98.2359 140.534 97.9438 141L97.098 142.413C96.953 142.645 96.8205 142.885 96.6945 143.128L96.3076 143.851L95.9207 144.571C95.797 144.813 95.6847 145.063 95.5658 145.308C95.3337 145.801 95.0818 146.28 94.8657 146.78L94.2247 148.277C94.0125 148.776 93.8372 149.294 93.6414 149.799C92.9023 151.841 92.2405 153.907 91.7561 156.045C91.264 158.177 90.8316 160.328 90.5505 162.536L90.434 163.358L90.3431 164.19L90.1592 165.858C90.0587 167.013 89.9363 168.164 89.8528 169.316C89.7809 170.469 89.6748 171.617 89.6335 172.769L89.5449 174.492C89.514 175.066 89.5063 175.642 89.4855 176.216C89.347 180.813 89.4151 185.407 89.6564 190.081C89.7592 192.411 89.9104 194.774 90.0673 197.144L90.5779 204.341C90.7478 206.758 90.9333 209.199 91.0836 211.655L91.5648 218.755L91.7145 220.476L91.7912 221.271L91.8304 221.652L91.8738 222.007C91.9888 222.95 92.1329 223.725 92.2985 224.317C92.4646 224.911 92.6411 225.317 92.8215 225.605C92.8741 225.671 92.9094 225.748 92.9579 225.81C93.0129 225.868 93.0453 225.938 93.0996 225.994C93.1267 226.022 93.1522 226.051 93.176 226.081C93.1998 226.111 93.2158 226.14 93.2574 226.179C93.3293 226.252 93.3897 226.331 93.4571 226.406C94.0119 226.994 94.7326 227.47 95.5025 227.77C96.2743 228.068 97.0781 228.195 97.8023 228.131L104.865 227.909L112.15 227.712C121.862 227.446 131.575 227.258 141.288 227.1L148.573 227.001L152.215 226.957L152.654 226.951C152.695 226.942 152.735 226.935 152.775 226.929C152.855 226.918 152.935 226.913 153.016 226.913C153.1 226.928 153.171 226.883 153.248 226.871C153.324 226.855 153.4 226.844 153.479 226.84C154.074 226.702 154.626 226.43 155.122 226.049C155.611 225.666 156.054 225.182 156.303 224.624C156.57 224.074 156.731 223.505 156.756 222.862C156.761 222.822 156.767 222.782 156.775 222.742L156.775 222.306L156.773 221.395L156.769 219.574L156.762 215.931L156.807 201.361L156.932 186.79C156.946 186.134 156.928 185.769 156.992 184.536C157.018 184.016 157.05 183.496 157.089 182.977C157.127 182.459 157.224 181.942 157.298 181.424C157.381 180.908 157.463 180.391 157.563 179.879C157.686 179.37 157.815 178.862 157.95 178.356C158.196 177.337 158.568 176.357 158.941 175.379C159.035 175.135 159.127 174.891 159.228 174.65L159.562 173.941C159.787 173.47 160.018 173.002 160.255 172.537C160.368 172.301 160.5 172.078 160.635 171.855L161.039 171.186C161.313 170.744 161.585 170.299 161.878 169.87C162.184 169.451 162.496 169.036 162.813 168.624C163.131 168.214 163.442 167.798 163.799 167.422C164.5 166.658 165.185 165.88 165.972 165.205C169.023 162.412 172.7 160.303 176.662 159.096C177.662 158.835 178.663 158.56 179.677 158.384C180.186 158.304 180.696 158.23 181.206 158.163L181.972 158.066C182.227 158.039 182.482 158.033 182.737 158.018C183.248 157.992 183.76 157.973 184.27 157.959L184.653 157.95L184.844 157.946L184.967 157.948L185.422 157.958L187.243 157.999C192.101 158.099 196.958 158.24 201.816 158.373C206.673 158.51 211.531 158.675 216.389 158.839L220.032 158.975L221.853 159.042L222.764 159.076L222.992 159.085L223.104 159.089L223.149 159.088L223.33 159.089C224.302 159.144 225.267 159.018 226.208 158.658L226.3 158.631L226.382 158.586L226.551 158.502C226.664 158.446 226.784 158.399 226.902 158.346C227.007 158.274 227.115 158.207 227.227 158.142C227.336 158.074 227.464 158.027 227.557 157.936C227.751 157.768 227.998 157.648 228.174 157.453C228.271 157.365 228.373 157.279 228.479 157.196C228.577 157.106 228.653 156.998 228.748 156.904C229.469 156.126 230.065 155.189 230.373 154.123C230.401 153.988 230.438 153.853 230.478 153.718L230.541 153.514C230.566 153.447 230.562 153.374 230.575 153.304C230.594 153.163 230.618 153.021 230.645 152.878L230.667 152.771C230.674 152.727 230.685 152.721 230.687 152.627L230.71 152.172L230.898 148.528L231.297 141.241C231.848 131.525 232.469 121.808 233.184 112.091C233.543 107.233 233.919 102.374 234.326 97.5154L234.403 96.6043L234.422 96.3767C234.428 96.3024 234.436 96.2162 234.438 96.1713L234.456 95.8433L234.503 95.1803L234.516 95.013L234.508 94.848L234.494 94.5167C234.485 94.295 234.479 94.0712 234.477 93.8454L234.388 93.1806C234.351 92.9595 234.348 92.7263 234.289 92.509L234.132 91.8463L234.056 91.5097C234.026 91.3991 233.981 91.2939 233.946 91.1851L233.721 90.5293C233.66 90.3017 233.54 90.1038 233.448 89.8886L233.162 89.2432L232.807 88.6313C232.683 88.4301 232.587 88.204 232.437 88.02L232.02 87.4343C231.949 87.3371 231.884 87.2322 231.808 87.1395L231.569 86.8682C230.325 85.3815 228.715 84.1345 226.857 83.2695C226.624 83.1658 226.382 83.0829 226.143 82.9857C225.902 82.8977 225.665 82.7815 225.416 82.712L224.663 82.504C224.411 82.4335 224.158 82.348 223.897 82.3165L223.114 82.1792L222.715 82.1093L222.259 82.0606L220.437 81.8624C215.578 81.3114 210.718 80.7691 205.858 80.0924C210.711 79.3709 215.566 78.7834 220.42 78.187L222.24 77.9719L222.695 77.919L223.205 77.8881L224.241 77.8343C224.589 77.8046 224.935 77.8307 225.283 77.847L226.333 77.9053C226.684 77.9282 227.027 78.001 227.377 78.0488C227.724 78.1062 228.077 78.1525 228.425 78.2236C231.199 78.8224 233.879 80.0862 236.193 81.9004L236.631 82.2386C236.774 82.3548 236.905 82.4844 237.042 82.6074L237.856 83.3637C238.137 83.6091 238.365 83.9022 238.619 84.1752L239.361 85.0177L240.027 85.9244C240.241 86.2334 240.483 86.5288 240.663 86.8602L241.237 87.8414C241.33 88.0069 241.431 88.1695 241.517 88.3389L241.758 88.8559L242.234 89.9005C242.396 90.2494 242.499 90.6184 242.631 90.9801C242.755 91.3441 242.883 91.7094 242.998 92.0784L243.264 93.2062L243.391 93.7744L243.454 94.0594L243.494 94.3464L243.641 95.5021L243.71 96.0834L243.756 96.5606L243.842 97.4709C244.294 102.326 244.715 107.181 245.12 112.035C245.924 121.745 246.636 131.456 247.277 141.166L247.744 148.449L247.966 152.091L247.993 152.546C247.999 152.604 247.998 152.749 247.999 152.857L248 153.205C248 153.668 247.996 154.133 247.987 154.598C247.979 154.831 247.986 155.064 247.961 155.296L247.892 155.993C247.843 156.459 247.791 156.925 247.731 157.39C246.613 164.847 241.916 171.739 235.181 175.534C231.825 177.438 227.989 178.601 224.11 178.846L223.382 178.897L223.084 178.914L222.857 178.924L221.946 178.967L220.125 179.051L216.483 179.221C211.627 179.43 206.772 179.639 201.916 179.822C197.06 180 192.203 180.186 187.347 180.331L185.526 180.389L185.071 180.404L184.966 180.408L184.93 180.417L184.858 180.433C184.762 180.452 184.667 180.466 184.572 180.474C184.525 180.48 184.476 180.475 184.43 180.487C184.385 180.503 184.34 180.518 184.296 180.531C184.206 180.558 184.116 180.578 184.026 180.593C184.003 180.597 183.98 180.599 183.958 180.604L183.895 180.634C183.852 180.653 183.811 180.671 183.768 180.687C183.683 180.718 183.597 180.743 183.508 180.762C182.845 181.043 182.246 181.469 181.757 181.997C181.612 182.106 181.538 182.283 181.414 182.409C181.346 182.468 181.315 182.557 181.269 182.632C181.224 182.708 181.174 182.78 181.12 182.849C181.08 182.928 181.053 183.013 181.009 183.087C180.989 183.125 180.968 183.163 180.944 183.199C180.92 183.235 180.895 183.271 180.888 183.315C180.863 183.399 180.833 183.478 180.798 183.555C180.78 183.594 180.761 183.632 180.74 183.669C180.729 183.711 180.724 183.754 180.713 183.795C180.678 183.96 180.595 184.11 180.593 184.283C180.58 184.365 180.56 184.446 180.535 184.526C180.532 184.611 180.535 184.697 180.526 184.78C180.525 184.865 180.49 184.944 180.499 185.032C180.51 185.12 180.514 185.207 180.512 185.293C180.493 185.272 180.515 186.122 180.528 186.68L180.789 201.25L180.97 215.82L180.996 219.462L181.009 221.283L181.015 222.194L181.017 222.669L180.994 223.459C180.899 227.669 179.84 231.919 177.905 235.697C175.984 239.489 173.17 242.777 169.804 245.335C166.437 247.886 162.478 249.719 158.309 250.542C157.787 250.632 157.264 250.715 156.74 250.793C156.216 250.865 155.692 250.959 155.167 250.979C154.642 251.013 154.116 251.041 153.59 251.063L152.801 251.092H152.329L148.687 251.082L141.401 251.05C131.687 250.984 121.973 250.885 112.259 250.71L104.973 250.581L97.4659 250.406C95.4018 250.343 93.357 250.048 91.3879 249.526C89.4177 249.005 87.5245 248.256 85.7379 247.322C82.1677 245.449 79.0168 242.8 76.5863 239.553C76.2847 239.147 75.9988 238.727 75.712 238.31C75.4261 237.894 75.1501 237.416 74.8802 236.966C74.6104 236.509 74.3757 236.032 74.132 235.561C73.896 235.088 73.6919 234.605 73.4806 234.125C72.6729 232.193 72.165 230.253 71.85 228.469C71.5344 226.679 71.4025 225.037 71.3347 223.559L71.311 223.007L71.2961 222.479C71.2851 222.12 71.2792 221.788 71.2765 221.455L71.2697 219.536L71.3835 212.071L71.5416 204.818C71.6346 199.951 71.7781 194.988 72.067 189.942C72.2144 187.424 72.4259 184.88 72.6693 182.339C72.812 181.064 72.9302 179.794 73.1094 178.521L73.362 176.614C73.447 175.979 73.5525 175.345 73.6473 174.711C74.0208 172.172 74.5017 169.65 75.0208 167.146C75.2791 165.894 75.5762 164.653 75.8529 163.408C76 162.779 76.1706 162.131 76.3319 161.495L76.5774 160.538L76.8523 159.581C77.5601 157.033 78.4225 154.495 79.424 152.007C80.4117 149.516 81.5867 147.074 82.9074 144.721C84.2185 142.362 85.7159 140.099 87.3613 137.973L87.9806 137.177C88.1842 136.911 88.3937 136.649 88.616 136.397L89.9229 134.872C90.369 134.374 90.8328 133.893 91.2902 133.409C91.5217 133.17 91.7448 132.923 91.9826 132.691L92.7011 132.001C93.1852 131.548 93.6461 131.072 94.1477 130.643L95.6363 129.344C96.1311 128.912 96.66 128.523 97.1691 128.113C97.6817 127.706 98.1937 127.302 98.7194 126.932C100.786 125.391 102.948 124.009 105.141 122.721C107.337 121.437 109.577 120.263 111.863 119.218C114.144 118.163 116.452 117.201 118.794 116.362C123.472 114.672 128.229 113.342 133.041 112.389Z" fill="#006FFD"/>
<path d="M70.0964 143.023C69.8132 142.229 69.5422 141.429 69.2917 140.621C69.0376 139.814 68.8204 138.997 68.5919 138.177C68.4822 137.766 68.3815 137.353 68.2837 136.939C68.1824 136.525 68.0876 136.109 68.0029 135.692L67.7393 134.435L67.5078 133.168C66.9153 129.779 66.6624 126.289 66.7474 122.728C66.8267 120.951 66.9435 119.15 67.238 117.351C67.3563 116.447 67.5429 115.549 67.7286 114.645C67.8118 114.191 67.9426 113.747 68.0522 113.296C68.1708 112.847 68.2745 112.392 68.4088 111.944C69.4599 108.359 71.0373 104.816 73.1668 101.537L74.0045 100.334C74.2871 99.9338 74.5641 99.5261 74.877 99.1499C75.4912 98.3877 76.0885 97.5945 76.7646 96.8819L77.7658 95.7901C78.1075 95.4341 78.4683 95.1025 78.8216 94.7575C79.1788 94.4184 79.5315 94.068 79.8982 93.7385L81.0218 92.7816C84.0488 90.2554 87.394 88.1618 90.8631 86.4849C91.2967 86.2754 91.7303 86.051 92.1674 85.8549L93.4848 85.2882L94.8107 84.7316C95.2517 84.553 95.6835 84.4068 96.1215 84.243C96.9961 83.931 97.8689 83.5896 98.7533 83.3085L100.08 82.8704C100.519 82.7204 100.981 82.6062 101.433 82.4728L102.796 82.0889L104.15 81.7501C105.059 81.5141 105.952 81.324 106.85 81.1263C108.645 80.7406 110.415 80.4369 112.173 80.1451C119.173 79.0352 125.813 78.5047 131.81 77.615C132.549 77.4982 133.295 77.3856 134.014 77.2599L136.097 76.8483C136.443 76.7779 136.792 76.7318 137.136 76.643L138.169 76.3957C138.856 76.224 139.547 76.0876 140.23 75.8929C141.592 75.4932 142.958 75.1369 144.304 74.671L145.317 74.3429L145.823 74.1777L146.324 73.9893L148.327 73.2422C158.972 69.0869 168.988 62.6229 178.422 54.914L178.569 54.794C183.719 50.5852 191.306 51.3486 195.515 56.4991C197.026 58.3493 197.894 60.5032 198.15 62.7126L198.241 63.4933L198.314 64.1726L198.443 65.4897C198.523 66.3583 198.595 67.2165 198.659 68.0714C198.791 69.7802 198.878 71.4785 198.943 73.175C199.071 76.5672 199.118 79.9528 199.03 83.3459C198.952 86.7384 198.782 90.1365 198.467 93.5406C198.318 95.2421 198.138 96.9467 197.926 98.6516C197.713 100.355 197.452 102.062 197.177 103.768C196.048 110.591 194.332 117.436 191.751 124.171C190.418 127.526 188.923 130.867 187.06 134.094C185.236 137.331 183.071 140.465 180.571 143.385C179.325 144.85 177.961 146.238 176.542 147.567C175.806 148.213 175.096 148.874 174.322 149.481C173.939 149.786 173.568 150.102 173.173 150.394L171.985 151.262L171.685 151.477L171.358 151.698L170.702 152.137C170.267 152.425 169.814 152.738 169.431 152.93L167.037 154.244C166.233 154.697 165.45 155.049 164.663 155.431C163.874 155.803 163.095 156.192 162.302 156.545C155.945 159.347 149.364 161.378 142.704 162.647C136.037 163.89 129.285 164.341 122.648 163.995C116.015 163.63 109.484 162.479 103.361 160.349C109.822 159.838 116.049 158.863 122.046 157.349C128.04 155.848 133.801 153.854 139.271 151.407C144.731 148.934 149.903 146.029 154.675 142.743C155.271 142.334 155.846 141.894 156.43 141.474C157.008 141.049 157.612 140.63 158.125 140.197L159.725 138.929C160.024 138.713 160.185 138.523 160.381 138.331L160.67 138.047L160.815 137.906L160.972 137.741C161.827 136.871 162.634 135.947 163.402 134.989C164.152 134.004 164.867 132.993 165.54 131.931C168.199 127.665 170.177 122.708 171.598 117.407C173.03 112.103 173.929 106.476 174.487 100.732C174.62 99.2931 174.743 97.8513 174.825 96.3972C174.919 94.9456 175.003 93.4894 175.052 92.0259C175.107 90.5635 175.132 89.0961 175.15 87.6254C175.169 86.155 175.173 84.6823 175.15 83.2068C175.096 80.2574 175.01 77.2994 174.827 74.3563C174.736 72.8856 174.626 71.4182 174.511 69.9653C174.451 69.2393 174.385 68.5178 174.315 67.8079L174.204 66.7586L174.096 65.8555L193.824 73.6541C188.329 78.1573 182.483 82.381 176.155 86.0412C174.598 86.9868 172.954 87.8192 171.341 88.6893C170.525 89.1116 169.689 89.5089 168.864 89.9181L167.623 90.5261L166.356 91.0984L163.81 92.2131L161.214 93.2413C160.779 93.408 160.353 93.5905 159.911 93.7435L158.588 94.2089C157.703 94.5135 156.831 94.8401 155.931 95.1081L153.235 95.9117L152.561 96.1108L151.877 96.2867L150.509 96.6326C149.594 96.8531 148.693 97.1137 147.762 97.2822L144.988 97.832C144.064 98.0106 143.123 98.1288 142.192 98.2771L140.793 98.4866C140.329 98.5618 139.855 98.5936 139.386 98.6486L136.568 98.9214C135.649 98.9912 134.753 99.0397 133.851 99.0928C126.706 99.4373 120.135 99.1859 113.994 99.3178C113.238 99.3422 112.468 99.3535 111.719 99.3867C110.978 99.4263 110.214 99.4477 109.489 99.5003C108.756 99.5463 108.015 99.5844 107.302 99.6575L106.221 99.7529L105.163 99.8803C104.459 99.9543 103.744 100.07 103.026 100.179C102.304 100.276 101.601 100.428 100.884 100.55C100.531 100.616 100.162 100.672 99.818 100.747L98.8002 100.984L97.7735 101.21C97.4341 101.29 97.1093 101.394 96.7744 101.483C91.4272 102.936 86.5801 105.359 82.5635 109.095L81.8331 109.819C81.5924 110.065 81.3306 110.297 81.1104 110.564C80.6548 111.085 80.1707 111.593 79.7467 112.155L79.0837 112.985L78.465 113.857L78.1518 114.296C78.0504 114.445 77.9592 114.6 77.8617 114.752L77.2745 115.67C75.7608 118.164 74.5228 120.939 73.5106 123.879C71.5273 129.787 70.5484 136.31 70.0964 143.023Z" fill="#16874E"/>
</svg>
